<svg xmlns="http://www.w3.org/2000/svg" viewBox="0 0 37.04 16.48"><defs><style>.cls-1{fill:#3a4750;fill-rule:evenodd;}</style></defs><title>Asset 1</title><g id="Layer_2" data-name="Layer 2"><g id="Layer_1-2" data-name="Layer 1"><g id="SvgjsG3721"><path class="cls-1" d="M8.19,4.12a4.12,4.12,0,0,0,0,8.23s2.82-.18,7.29-4.12c-4.47-3.94-7.3-4.11-7.33-4.11ZM21.52,8.23c4.46,3.94,7.29,4.12,7.33,4.12a4.12,4.12,0,0,0,0-8.23c-.19,0-3,.3-7.31,4.11Zm7.27,8.23c-.5,0-4.49-.18-10.27-5.39-5.83,5.25-9.8,5.49-10.3,5.39A8.23,8.23,0,0,1,8.23,0c.46,0,4.46.14,10.29,5.39C24.3.18,28.29,0,28.81,0h0a8.23,8.23,0,0,1,0,16.46Z"/></g></g></g></svg>