<svg xmlns="http://www.w3.org/2000/svg" viewBox="0 0 102.67 54.73"><defs><style>.cls-1{isolation:isolate;}.cls-2{fill:#1a3350;}.cls-3{fill:#457dc0;}</style></defs><g id="Layer_2" data-name="Layer 2"><g id="Layer_1-2" data-name="Layer 1"><g id="Layer_2-2" data-name="Layer 2"><g id="Layer_1-2-2" data-name="Layer 1-2"><g class="cls-1"><g class="cls-1"><path class="cls-2" d="M0,.65H13.68V54.08H0Z"/></g><g class="cls-1"><path class="cls-2" d="M37.45,16.49h9.28V26.71H37.81V54.08H24.12V26.71H18.44V16.49h5.68v-1C24.12,6.12,30,0,40.4,0c3.31,0,6.84.65,9.07,2l-3.38,9.65A8.79,8.79,0,0,0,42,10.51c-2.88,0-4.53,1.66-4.53,5.12Z"/></g><g class="cls-1"><path class="cls-2" d="M83.67,14.4V26.71a25.73,25.73,0,0,0-3.1-.21c-5.54,0-9.36,2.81-9.36,9.65V54.08H57.53v-39h13v4.68C73.37,16.2,77.91,14.4,83.67,14.4Z"/></g><g class="cls-1"><path class="cls-3" d="M86.25,46.59a7.83,7.83,0,0,1,8.21-8.07c4.68,0,8.21,3.17,8.21,8.07a8.21,8.21,0,0,1-16.42,0Z"/></g></g></g></g></g></g></svg>