<svg xmlns="http://www.w3.org/2000/svg" fill="#407bff" viewBox="0 0 448 512"><!--! Font Awesome Free 6.1.1 by @fontawesome - https://fontawesome.com License - https://fontawesome.com/license/free (Icons: CC BY 4.0, Fonts: SIL OFL 1.1, Code: MIT License) Copyright 2022 Fonticons, Inc.--><path d="M381 97A222 222 0 0 0 32 365L0 480l118-31a224 224 0 0 0 330-195c0-59-25-115-67-157zM224 439c-33 0-66-9-94-26l-7-4-70 18 19-68-4-7a185 185 0 0 1 287-229c34 35 56 82 55 131 1 102-84 185-186 185zm101-138c-5-3-33-17-38-18-5-2-9-3-12 2l-18 22c-3 4-6 4-12 2-33-17-54-30-75-66-6-10 5-10 16-31 2-3 1-7-1-9l-17-42c-4-10-9-9-12-9h-11c-4 0-10 1-15 7-5 5-19 19-19 46s20 54 23 57c2 4 39 60 94 84 36 15 49 17 67 14 11-2 33-13 37-26 5-13 5-25 4-27-2-2-5-4-11-6z"/></svg>