<svg id="Layer_1" enable-background="new 0 0 512 512" height="200" viewBox="0 0 512 512" width="200" xmlns="http://www.w3.org/2000/svg"><path d="m475.955 375c16.028-32.582 25.045-69.236 25.045-108 0-135.31-109.69-245-245-245s-245 109.69-245 245c0 38.764 9.017 75.418 25.045 108z" fill="#417dc7"/><path d="m181.139 250.064h20.781v15.244h-20.781z" fill="#0f3e4c"/><path d="m310.098 250.064h20.781v15.244h-20.781z" fill="#0f3e4c"/><path d="m184.457 263.766c-10.946 16.523-6.699 36.726-1.134 50.866 19.444 49.4 71.833 67.94 72.36 68.122l.326.112.326-.112c.527-.182 52.917-18.722 72.361-68.122 5.564-14.136 9.81-34.334-1.128-50.855l-.164-.072c-7.168-3.136-14.908-4.755-22.732-4.755-32.408 0-64.864 0-97.342 0-7.824 0-15.564 1.619-22.732 4.755z" fill="#ebf0f2"/><path d="m184.597 263.705-.14.061c-10.947 16.523-6.699 36.726-1.135 50.866 19.444 49.4 71.833 67.94 72.361 68.122l.326.112.326-.112c.025-.009.176-.062.436-.159-.254-.262-.498-.524-.762-.787-35.707-35.707-11.6-68.535-11.6-68.535l-24.581-54.324c-4.167 0-8.331 0-12.499 0-7.825.001-15.564 1.62-22.732 4.756z" fill="#c2d4e6"/><path d="m452.111 324.153c-5.337-9.534-13.807-16.921-23.98-20.907l-28.23-11.063c3.043 12.015-3.18 26.801-18.517 43.96-22.294 24.941-55.176 37.523-78.834 43.686-25.694 6.693-46.369 7.473-46.506 7.48-.206-.008-20.841-.782-46.53-7.469-23.673-6.162-56.574-18.745-78.878-43.698-15.34-17.162-21.563-31.951-18.516-43.968l-28.249 11.071c-10.173 3.987-18.643 11.373-23.98 20.907-7.869 14.055-16.3 31.734-24.343 49.848 24.49 50.364 65.732 91.072 116.475 114.893v-25.009c0-6.003 4.911-10.914 10.914-10.914h186.8c6.003 0 10.914 4.911 10.914 10.914v24.692c50.434-23.865 91.418-64.437 115.8-114.577-8.042-18.113-16.473-35.792-24.34-49.846z" fill="#2c2c42"/><path d="m130.645 342.231c1.271-.63 2.352-1.575 3.142-2.73-1.069-1.097-2.126-2.21-3.152-3.358-15.34-17.162-21.563-31.951-18.516-43.968l-28.249 11.071c-10.173 3.987-18.643 11.373-23.98 20.907-7.868 14.054-16.299 31.733-24.342 49.847 12.547 25.803 29.501 49.062 49.867 68.824 4.13-18.044 10.482-45.573 14.87-63.543 5.532-22.654 23.194-33.498 30.36-37.05z" fill="#212135"/><path d="m256 512c37.834 0 73.663-8.577 105.652-23.892v-26.224c0-6.003-4.911-10.914-10.914-10.914h-188.801c-6.003 0-10.914 4.911-10.914 10.914v26.54c31.818 15.114 67.408 23.576 104.977 23.576z" fill="#fbcc68"/><path d="m238.716 475.47c0-11.588 7.836-21.427 18.469-24.5h-95.247c-6.003 0-10.914 4.911-10.914 10.914v26.54c26.895 12.775 56.491 20.773 87.693 22.95v-35.904z" fill="#efaa42"/><path d="m340.483 268.897-11.625-4.556-1.455-.637c-7.168-3.136-14.908-4.755-22.732-4.755-32.408 0-64.864 0-97.342 0-7.824 0-15.564 1.619-22.732 4.755l-1.455.637-11.625 4.556c9.458 37.861 43.693 65.908 84.483 65.908s75.025-28.047 84.483-65.908z" fill="#c2d4e6"/><path d="m190.679 262.363c.648-.158 1.296-.319 1.949-.47.413-.414.823-.849 1.228-1.303-3.161.773-6.262 1.803-9.259 3.114l-1.455.637-11.625 4.556c7.946 31.809 33.384 56.683 65.502 63.825 1.817-11.854 7.39-19.449 7.39-19.449l-.991-2.19c-25.53-4.802-45.996-23.928-52.739-48.72z" fill="#99b8da"/><path d="m321.998 261.663c-5.589-1.793-11.434-2.713-17.327-2.713-32.408 0-64.864 0-97.342 0-5.893 0-11.738.92-17.327 2.713 6.868 30.119 33.798 52.602 65.998 52.602s59.13-22.483 65.998-52.602z" fill="#e0d3cd"/><path d="m304.039 233.818c-8.422 11.921-19.716 23.061-34.779 30.347-4.098 1.982-8.597 3.076-13.149 3.085-.034 0-.068 0-.102 0-.025 0-.049 0-.074 0-4.572-.007-9.088-1.115-13.202-3.108-15.057-7.294-26.344-18.441-34.761-30.366-3.027 11.208-8.643 23.416-15.345 30.117-.653.151-1.3.311-1.949.47 7.821 28.752 34.092 49.902 65.321 49.902s57.5-21.15 65.32-49.902c-.648-.158-1.296-.319-1.949-.47-6.691-6.692-12.302-18.879-15.331-30.075z" fill="#ffaa7b"/><path d="m258.163 267.164c-.682.05-1.366.084-2.052.085-.034 0-.067 0-.102 0-.024 0-.049 0-.074 0-4.572-.007-9.088-1.115-13.202-3.108-15.057-7.294-26.344-18.441-34.761-30.366-3.026 11.208-8.643 23.416-15.345 30.117-.653.151-1.301.311-1.949.47 6.831 25.113 27.738 44.424 53.73 48.91 8.441-14.789 12.168-32.049 13.755-46.108z" fill="#f7996b"/><path d="m345.146 137.59c-3.685-3.377-11.024-1.665-14.198.403.695 4.329.735 8.759.134 13.132l-4.742 27.275c0 2.199-.26 4.356-.388 6.475 9.132 2.754 14.856-5.444 15.62-11.07.329-2.422.867-4.809 1.613-7.138 2.43-7.586 11.193-20.616 1.961-29.077z" fill="#ffaa7b"/><path d="m166.873 137.59c3.685-3.377 11.025-1.665 14.198.403-.695 4.329-.735 8.759-.134 13.132l4.742 27.275c0 2.199.505 4.356.632 6.475-9.132 2.754-15.1-5.444-15.865-11.07-.329-2.422-.867-4.809-1.613-7.138-2.429-7.586-11.192-20.616-1.96-29.077z" fill="#f7996b"/><path d="m328.694 129.566c-.843-2.199-1.905-4.426-3.244-6.527-2.268-3.558-3.265-7.766-2.961-11.962.874-12.068.405-35.671-15.437-42.8-13.46-6.057-29.971-2.55-40.5.952-6.838 2.274-14.247 2.274-21.084 0-10.529-3.501-27.04-7.008-40.5-.952-15.888 7.149-16.314 30.867-15.43 42.903.306 4.164-.719 8.329-2.969 11.86-1.24 1.946-2.243 4-3.054 6.04-2.804 7.054-3.579 14.753-2.547 22.274l3.714 27.047s9.248 64.098 58.052 87.742c4.114 1.993 8.63 3.101 13.202 3.108h.074.102c4.552-.009 9.051-1.103 13.149-3.085 47.528-22.989 57.569-84.326 58.076-87.615 0-.05.002-.099.002-.149l3.745-27.275c.997-7.273.24-14.7-2.39-21.561z" fill="#fb9"/><path d="m237.93 178.401-2.367-27.047c-.658-7.521-.164-15.219 1.623-22.274.517-2.04 1.156-4.094 1.946-6.04 1.434-3.531 2.087-7.696 1.892-11.86-.522-11.151-.321-32.317 7.761-41.057-1.116-.247-2.227-.531-3.319-.894-10.529-3.501-27.039-7.008-40.499-.952-15.888 7.149-16.314 30.867-15.43 42.903.306 4.164-.719 8.329-2.969 11.86-1.24 1.946-2.243 4-3.054 6.04-2.805 7.054-3.579 14.753-2.547 22.274l3.714 27.047s9.248 64.098 58.052 87.742c4.114 1.993 8.63 3.101 13.202 3.108h.074.101c4.552-.009 9.051-1.103 13.149-3.085 1.186-.574 2.341-1.177 3.481-1.797-29.19-24.912-34.81-85.968-34.81-85.968z" fill="#ffaa7b"/><g fill="#404051"><path d="m357.101 84.053c4.637-.706 9.742-4.356 12.55-6.635 1.01-.82.801-2.392-.367-2.964-21.943-10.737-35.126-45.543-52.964-56.591-15.267-9.456-28.432-4.01-32.576-1.812-.771.409-1.733.185-2.241-.524-5.894-8.215-15.677-13.09-21.424-15.394-1.534-.615-2.997 1.004-2.231 2.469 2.538 4.856 3.607 8.811 4.054 11.42.242 1.416-1.236 2.51-2.524 1.873-19.243-9.511-53.461-2.74-74.35 22.801-17.38 21.251-30.772 24.437-35.6 24.842-1.093.092-1.84 1.148-1.559 2.208 1.871 7.066 9.088 11.643 12.143 13.302.849.461 1.203 1.538.718 2.373-1.45 2.497-4.549 4.011-6.368 4.72-.811.316-1.262 1.175-1.071 2.024 1.755 7.813 10.035 43.237 18.801 56.97 6.111 9.574 9.452 22.507 11.113 30.981.236 1.204 1.989 1.096 2.075-.128.652-9.245 1.598-24.316 1.967-38.437.453-17.324 15.587-27.505 22.483-31.254 1.331-.724 2.895.465 2.568 1.944l-.942 4.267c-.27 1.224.785 2.339 2.02 2.133 51.692-8.649 70.674-26.509 77.605-37.641.484-.778 1.428-1.124 2.301-.844.798.256 1.34.988 1.381 1.825 1.616 33.261 27.332 37.314 31.042 52.069 3.044 12.106 2.269 35.075 1.683 45.913-.08 1.482 1.952 2.012 2.586.67 8.063-17.056 6.905-40.638 19.718-56.224 10.411-12.664 15.255-20.972 17.098-24.502.509-.974-.01-2.139-1.055-2.478-4.68-1.514-7.845-4.324-9.715-6.484-.906-1.047-.291-2.683 1.081-2.892z"/><path d="m374.375 268.267c-2.888-.98-5.375-2.902-7.027-5.465-5.727-8.883-22.785-27.978-57.249-12.738 0 0 37.167 14.658 17.667 64.201s-71.756 67.543-71.756 67.543v6.5s82.62-2.833 126.12-51.5c41.595-46.536 5.877-63.914-7.755-68.541z"/><path d="m137.643 268.267c2.888-.98 5.375-2.902 7.027-5.465 5.728-8.883 22.785-27.978 57.25-12.738 0 0-37.167 14.658-17.667 64.201s71.756 67.543 71.756 67.543v6.5s-82.62-2.833-126.12-51.5c-41.596-46.536-5.878-63.914 7.754-68.541z"/></g><path d="m133.167 340.301c.642-.724 1.158-1.558 1.502-2.478 6.108-16.363 20.38-7.976 27.95-21.493 8-14.284 19.11-9.299 19.11-9.299-13.311-43.748 20.192-56.967 20.192-56.967-34.465-15.24-51.522 3.855-57.25 12.738-1.652 2.563-4.139 4.485-7.027 5.465-13.632 4.626-49.35 22.005-7.754 68.541 1.067 1.195 2.164 2.353 3.277 3.493z" fill="#2c2c42"/><path d="m376.652 416.639v63.637c5.118-2.902 10.12-5.985 15-9.236v-54.401c0-4.143-3.358-7.5-7.5-7.5s-7.5 3.358-7.5 7.5z" fill="#212135"/><path d="m136.023 416.639c0-4.143-3.358-7.5-7.5-7.5s-7.5 3.357-7.5 7.5v54.851c4.88 3.228 9.884 6.282 15 9.162z" fill="#212135"/><circle cx="330.271" cy="356.176" fill="#2c2c42" r="13.759"/><circle cx="181.728" cy="356.176" fill="#2c2c42" r="13.759"/><path d="m330.271 351.783c-4.142 0-7.5 3.357-7.5 7.5v109.692c0 4.143 3.358 7.5 7.5 7.5s7.5-3.357 7.5-7.5v-109.692c0-4.142-3.358-7.5-7.5-7.5z" fill="#545460"/><path d="m330.271 446.435c-5.688 0-10.3 4.611-10.3 10.3v16.234c0 5.689 4.611 10.3 10.3 10.3 5.688 0 10.3-4.611 10.3-10.3v-16.234c0-5.689-4.612-10.3-10.3-10.3z" fill="#ebf0f2"/><path d="m181.728 351.783c-4.142 0-7.5 3.357-7.5 7.5v109.692c0 4.143 3.358 7.5 7.5 7.5s7.5-3.357 7.5-7.5v-109.692c0-4.142-3.358-7.5-7.5-7.5z" fill="#545460"/><path d="m181.728 446.435c-5.688 0-10.3 4.611-10.3 10.3v16.234c0 5.689 4.611 10.3 10.3 10.3s10.3-4.611 10.3-10.3v-16.234c0-5.689-4.611-10.3-10.3-10.3z" fill="#ebf0f2"/><path d="m330.271 467.268c-5.688 0-10.3-4.611-10.3-10.3v16c0 5.689 4.612 10.3 10.3 10.3 5.689 0 10.3-4.611 10.3-10.3v-16c0 5.69-4.612 10.3-10.3 10.3z" fill="#c2d4e6"/><path d="m181.728 467.268c-5.688 0-10.3-4.611-10.3-10.3v16c0 5.689 4.611 10.3 10.3 10.3s10.3-4.611 10.3-10.3v-16c0 5.69-4.611 10.3-10.3 10.3z" fill="#c2d4e6"/><path d="m241.118 48.947c-25.434-20.282 18.26-33.051 18.26-33.051-19.243-9.511-53.461-2.74-74.35 22.801-17.38 21.251-30.772 24.437-35.6 24.842-1.093.092-1.84 1.148-1.559 2.208 1.871 7.066 9.088 11.643 12.143 13.302.849.461 1.203 1.538.718 2.373-1.45 2.497-4.549 4.011-6.368 4.72-.811.316-1.262 1.175-1.071 2.024 1.755 7.813 10.035 43.237 18.801 56.97 6.111 9.574 9.452 22.507 11.113 30.981.236 1.204 1.989 1.096 2.075-.128.652-9.245 1.598-24.316 1.966-38.437.453-17.324 15.587-27.505 22.483-31.254 1.331-.724 2.895.465 2.568 1.944l-.942 4.267c-.27 1.224.785 2.339 2.021 2.133 10.472-1.752 19.581-3.887 27.54-6.262-11.018-27.716 25.633-39.153.202-59.433z" fill="#2c2c42"/></svg>