<svg xmlns="http://www.w3.org/2000/svg" width="37px" height="37px"><g fill="#f6f6f6" fill-rule="evenodd" opacity="0.100000001"><rect width="4" height="4" rx="2"/><rect width="4" height="4" x="11" rx="2"/><rect width="4" height="4" x="22" rx="2"/><rect width="4" height="4" x="33" rx="2"/><rect width="4" height="4" y="11" rx="2"/><rect width="4" height="4" x="11" y="11" rx="2"/><rect width="4" height="4" x="22" y="11" rx="2"/><rect width="4" height="4" x="33" y="11" rx="2"/><rect width="4" height="4" y="22" rx="2"/><rect width="4" height="4" x="11" y="22" rx="2"/><rect width="4" height="4" x="22" y="22" rx="2"/><rect width="4" height="4" x="33" y="22" rx="2"/><rect width="4" height="4" y="33" rx="2"/><rect width="4" height="4" x="11" y="33" rx="2"/><rect width="4" height="4" x="22" y="33" rx="2"/><rect width="4" height="4" x="33" y="33" rx="2"/></g></svg>